<svg width="268" height="66" viewBox="0 0 268 66" fill="none" xmlns="http://www.w3.org/2000/svg">
<path d="M268 0.87207V2.88184H0V0.87207H268ZM268 63.8521V65.8618H0V63.8521H268ZM16.465 46.5171C18.488 46.5171 20.254 46.0768 21.768 45.1958C23.249 44.3441 24.517 43.1669 25.476 41.7529C26.4261 40.3598 27.1457 38.8231 27.607 37.2012C28.068 35.5812 28.299 34.0452 28.299 32.5942C28.299 30.6242 28.109 28.904 27.731 27.436C27.351 25.967 26.651 24.572 25.627 23.251C24.5971 21.9314 23.2622 20.8816 21.737 20.1919C20.2038 19.4854 18.5351 19.1214 16.847 19.125C14.407 19.125 12.283 19.7132 10.483 20.8872C8.68 22.0632 7.30301 23.7268 6.35001 25.8848C5.39901 28.0418 4.922 30.5468 4.922 33.4028C4.922 36.1668 5.43401 38.5419 6.45901 40.5239C7.48301 42.5089 8.87699 44.0028 10.637 45.0088C12.397 46.0148 14.34 46.5171 16.465 46.5171C16.465 46.5171 14.441 46.5171 16.465 46.5171V46.5171ZM16.424 17.7251C18.48 17.7251 20.461 18.0119 22.367 18.5869C24.2283 19.138 25.969 20.035 27.498 21.231C29.015 22.419 30.217 23.94 31.103 25.792C31.993 27.644 32.436 29.797 32.436 32.251C32.436 34.581 32.045 36.711 31.264 38.644C30.482 40.575 29.365 42.2379 27.912 43.6289C26.457 45.0229 24.742 46.0849 22.77 46.8169C20.795 47.5509 18.648 47.917 16.332 47.917C14.033 47.917 11.924 47.563 10.002 46.855C8.08001 46.146 6.43199 45.1269 5.05499 43.7969C3.67999 42.4649 2.62501 40.8721 1.88901 39.0171C1.15201 37.1601 0.785004 35.1168 0.785004 32.8828C0.785004 30.6098 1.18199 28.531 1.97699 26.646C2.77099 24.764 3.88099 23.159 5.30899 21.832C6.73699 20.504 8.399 19.4882 10.297 18.7832C12.195 18.0782 14.237 17.7251 16.424 17.7251C16.424 17.7251 14.367 17.7251 16.424 17.7251V17.7251ZM51.748 17.7251C54.807 17.7251 57.834 18.3791 60.826 19.6841C60.496 20.5341 60.199 21.6242 59.938 22.9502L59.648 22.9912C59.381 22.6412 58.865 22.1728 58.102 21.5908C57.338 21.0128 56.382 20.4928 55.234 20.0308C54.0689 19.5682 52.8256 19.3344 51.572 19.3418C49.693 19.3418 48.024 19.6978 46.559 20.4038C45.1272 21.0853 43.8733 22.0901 42.896 23.3389C41.92 24.5859 41.186 26.0262 40.693 27.6592C40.201 29.2942 39.955 31.0339 39.955 32.8789C39.955 35.5389 40.432 37.884 41.385 39.916C42.335 41.947 43.674 43.5118 45.396 44.6108C47.121 45.7088 49.082 46.2578 51.283 46.2578C53.229 46.2578 54.99 45.8711 56.564 45.0981C58.139 44.3221 59.364 43.5629 60.238 42.8149L60.031 45.4912C57.631 47.1082 54.516 47.917 50.684 47.917C48.394 47.917 46.33 47.5648 44.49 46.8638C42.65 46.1638 41.08 45.145 39.78 43.812C38.48 42.477 37.496 40.8698 36.824 38.9888C36.154 37.1108 35.818 35.0188 35.818 32.7178C35.818 29.6338 36.516 26.9572 37.908 24.6812C39.301 22.4082 41.211 20.6811 43.638 19.4971C46.066 18.3161 48.769 17.7251 51.748 17.7251V17.7251ZM91.424 18.3691V47.4082C91.162 47.3942 90.834 47.3709 90.438 47.3359C90.1484 47.3076 89.8579 47.2905 89.567 47.2842C89.346 47.2842 89.025 47.3019 88.607 47.3359C88.187 47.3709 87.889 47.3942 87.709 47.4082V32.7998C82.703 32.6628 79.742 32.5942 78.826 32.5942C77.961 32.5942 74.988 32.6628 69.914 32.7998V47.4082C69.5903 47.3889 69.267 47.3647 68.944 47.3359C68.6491 47.3078 68.3532 47.2907 68.057 47.2842C67.837 47.2842 67.517 47.3019 67.097 47.3359C66.677 47.3709 66.379 47.3942 66.199 47.4082V18.3682C66.316 18.3752 66.499 18.3901 66.746 18.4141C67.1814 18.4582 67.6184 18.4844 68.056 18.4922C68.187 18.4922 68.371 18.4848 68.609 18.4668L69.336 18.4102C69.584 18.3892 69.776 18.3751 69.914 18.3691V30.5498C70.967 30.5778 72.414 30.6212 74.256 30.6802C76.099 30.7392 77.623 30.769 78.826 30.769C80.059 30.769 81.588 30.7392 83.418 30.6802C84.8479 30.6334 86.2779 30.5897 87.708 30.5498V18.3691C87.826 18.3751 88.008 18.3901 88.256 18.4141C88.6914 18.4582 89.1285 18.4844 89.566 18.4922C89.7499 18.4906 89.9337 18.4819 90.117 18.4668C90.355 18.4488 90.59 18.4302 90.824 18.4102C91.059 18.3882 91.258 18.3752 91.424 18.3682V18.3691ZM112.727 46.5171C114.747 46.5171 116.516 46.0768 118.029 45.1958C119.51 44.3432 120.778 43.1662 121.739 41.7529C122.688 40.3597 123.407 38.8229 123.867 37.2012C124.328 35.5812 124.559 34.0452 124.559 32.5942C124.559 30.6242 124.369 28.904 123.992 27.436C123.613 25.967 122.912 24.572 121.887 23.251C120.858 21.9313 119.523 20.8815 117.998 20.1919C116.465 19.4857 114.796 19.1217 113.108 19.125C110.666 19.125 108.545 19.7132 106.742 20.8872C104.942 22.0632 103.564 23.7268 102.612 25.8848C101.658 28.0418 101.182 30.5468 101.182 33.4028C101.182 36.1668 101.695 38.5419 102.719 40.5239C103.744 42.5089 105.137 44.0028 106.896 45.0088C108.658 46.0148 110.601 46.5171 112.726 46.5171C112.726 46.5171 110.706 46.5171 112.726 46.5171H112.727ZM112.685 17.7251C114.74 17.7251 116.723 18.0119 118.627 18.5869C120.489 19.1383 122.23 20.0353 123.76 21.231C125.275 22.419 126.478 23.94 127.365 25.792C128.252 27.644 128.695 29.797 128.695 32.251C128.695 34.581 128.305 36.711 127.525 38.644C126.744 40.575 125.627 42.2379 124.172 43.6289C122.717 45.0229 121.004 46.0849 119.029 46.8169C117.055 47.5509 114.909 47.917 112.592 47.917C110.295 47.917 108.185 47.563 106.263 46.855C104.34 46.146 102.691 45.1269 101.316 43.7969C99.941 42.4649 98.885 40.8721 98.148 39.0171C97.414 37.1601 97.045 35.1168 97.045 32.8828C97.045 30.6098 97.443 28.531 98.236 26.646C99.031 24.764 100.142 23.159 101.568 21.832C102.996 20.504 104.658 19.4882 106.557 18.7832C108.455 18.0782 110.497 17.7251 112.685 17.7251C112.685 17.7251 110.63 17.7251 112.685 17.7251V17.7251ZM137.99 45.709H142.22C143.582 45.709 144.802 45.429 145.883 44.874C146.931 44.3482 147.807 43.535 148.41 42.5298C149.015 41.5248 149.318 40.3928 149.318 39.1338C149.318 36.7788 148.56 35.1262 147.043 34.1802C145.527 33.2322 143.369 32.7588 140.57 32.7588H137.99V45.709ZM137.99 31.1001H139.517C142.068 31.1001 143.984 30.8198 145.264 30.2598C146.316 29.7848 147.121 29.0982 147.677 28.2002C148.234 27.3022 148.514 26.278 148.514 25.123C148.514 23.198 147.91 21.8509 146.704 21.0889C145.496 20.3259 143.705 19.9448 141.334 19.9448H137.99V31.1001ZM142.767 18.3691C144.885 18.3691 146.637 18.5571 148.017 18.9341C149.4 19.3111 150.441 19.9291 151.139 20.7891C151.836 21.6491 152.186 22.7951 152.186 24.2261C152.186 26.1401 151.562 27.7502 150.318 29.0532C149.074 30.3562 147.471 31.2512 145.512 31.7432C147.56 31.8742 149.363 32.4632 150.918 33.5112C152.471 34.5572 153.248 36.1912 153.248 38.4102C153.248 41.4372 151.98 43.828 149.441 45.585C148.334 46.338 147.081 46.809 145.687 47C144.291 47.19 142.57 47.2842 140.529 47.2842H134.277V18.3691H142.767ZM163.007 34.1592H172.302L167.609 23.2939L163.007 34.1592ZM169.137 17.7251L181.812 47.4082C181.531 47.3942 181.152 47.3709 180.676 47.3359C180.196 47.3019 179.844 47.2842 179.617 47.2842C179.34 47.2842 178.953 47.3019 178.451 47.3359C177.949 47.3709 177.588 47.3942 177.367 47.4082C177.01 46.3662 176.577 45.1511 176.062 43.7651C175.567 42.4221 175.054 41.0857 174.522 39.7568C174.009 38.4787 173.478 37.2073 172.932 35.9429H162.203C160.086 41.3059 158.689 45.1272 158.016 47.4082C157.738 47.3907 157.461 47.3664 157.184 47.3359C156.943 47.3074 156.7 47.2903 156.457 47.2842C156.264 47.2842 155.997 47.3038 155.658 47.3418C155.316 47.3788 155.092 47.4022 154.982 47.4082L168.166 17.7251H169.137ZM211.133 18.3691V47.4082C210.804 47.3902 210.476 47.3659 210.148 47.3359C209.859 47.3077 209.569 47.2906 209.278 47.2842C209.057 47.2842 208.736 47.3019 208.316 47.3359C207.898 47.3709 207.598 47.3942 207.42 47.4082V32.7998C202.412 32.6628 199.451 32.5942 198.537 32.5942C197.67 32.5942 194.699 32.6628 189.625 32.7998V47.4082C189.301 47.3889 188.977 47.3647 188.654 47.3359C188.359 47.3078 188.063 47.2907 187.767 47.2842C187.547 47.2842 187.227 47.3019 186.808 47.3359C186.388 47.3709 186.09 47.3942 185.91 47.4082V18.3682C186.027 18.3752 186.209 18.3901 186.457 18.4141C186.892 18.4583 187.329 18.4844 187.767 18.4922C187.898 18.4922 188.082 18.4848 188.318 18.4668L189.047 18.4102C189.295 18.3892 189.487 18.3751 189.625 18.3691V30.5498C190.675 30.5778 192.123 30.6212 193.967 30.6802C195.811 30.7392 197.334 30.769 198.537 30.769C199.767 30.769 201.299 30.7392 203.129 30.6802C204.559 30.6334 205.989 30.5897 207.419 30.5498V18.3691C207.537 18.3751 207.719 18.3901 207.967 18.4141C208.402 18.4583 208.839 18.4844 209.277 18.4922C209.407 18.4922 209.592 18.4848 209.827 18.4668C210.067 18.4488 210.301 18.4302 210.535 18.4102C210.769 18.3882 210.968 18.3752 211.133 18.3682V18.3691ZM244.01 18.3682V47.4082C243.394 47.3351 242.774 47.2937 242.154 47.2842C241.74 47.2842 241.121 47.3262 240.297 47.4082V24.2261H239.873L222.253 44.8169C221.492 45.6557 220.76 46.5202 220.057 47.4082H218.787V18.3682C219.068 18.4512 219.687 18.4922 220.644 18.4922C220.789 18.4922 221.408 18.4511 222.502 18.3691V40.5342H222.924L242.154 18.3691H244.01V18.3682ZM266.625 18.3691C266.611 18.5421 266.585 18.752 266.547 18.999C266.512 19.214 266.493 19.4312 266.49 19.6489C266.49 19.8289 266.51 20.0491 266.547 20.3101C266.586 20.5701 266.611 20.7729 266.625 20.9189C265.607 20.7189 264.338 20.5631 262.818 20.4521L258.588 20.3691H255.338V31.0181H261.888C262.398 31.0181 263.103 30.984 264.004 30.918C264.904 30.853 265.451 30.8181 265.644 30.8101L265.598 31.1318L265.541 31.5718L265.521 31.9092L265.547 32.251L265.603 32.708L265.644 33.1011C265.043 33.0747 264.443 33.0352 263.844 32.9829C263.051 32.9159 262.398 32.8828 261.889 32.8828H255.338V45.2842C257.064 45.2842 259.613 45.2272 262.982 45.1182C264.283 45.0762 265.58 44.9479 266.872 44.7349L266.83 45.1328L266.773 45.6201L266.748 46.0088C266.748 46.2028 266.764 46.4109 266.795 46.6309C266.826 46.8529 266.851 47.0712 266.873 47.2842H251.625V18.3682H266.625" fill="#B0B0B0"/>
</svg>
