<svg width="33" height="33" viewBox="0 0 33 33" fill="none" xmlns="http://www.w3.org/2000/svg">
<path d="M32.8101 18.943V18.949L32.77 19.192C32.4441 21.2028 31.7436 23.1346 30.705 24.887L30.63 25.013C29.5687 26.7833 28.1804 28.3355 26.539 29.587L26.289 29.284L26.528 29.596C24.5518 31.1234 22.2497 32.174 19.801 32.666L19.704 32.686C18.041 33.0176 16.3364 33.0871 14.652 32.892L14.546 32.88L14.453 32.868C12.0328 32.5743 9.70961 31.7404 7.65504 30.428C5.52385 29.0821 3.73474 27.2591 2.42903 25.103L2.40901 25.073C2.39717 25.0531 2.38553 25.0331 2.37403 25.013L2.352 24.976C2.29923 24.8878 2.24723 24.7991 2.196 24.71C2.15799 24.644 2.12002 24.578 2.08302 24.51L2.06703 24.482C2.05107 24.4532 2.03541 24.4242 2.02003 24.395L1.99 24.338C1.90446 24.18 1.82149 24.0206 1.74104 23.86L1.71302 23.804L1.62599 23.627C1.60554 23.5849 1.58554 23.5425 1.56599 23.5L1.53999 23.443C1.49099 23.337 1.44203 23.231 1.39503 23.124L1.34101 22.998C1.27943 22.8549 1.22011 22.7109 1.16304 22.566L1.154 22.545C-0.0157273 19.597 -0.303714 16.3726 0.325023 13.264C0.776618 10.9664 1.71987 8.79377 3.09004 6.895L3.102 6.879C3.195 6.75 3.29004 6.622 3.38704 6.495L3.45204 6.409C3.58646 6.2364 3.72411 6.06636 3.865 5.899L3.91999 5.835C4.02542 5.70816 4.13379 5.58379 4.24501 5.462L4.339 5.36C4.489 5.197 4.63999 5.037 4.78999 4.886L4.84004 4.836C4.96767 4.70758 5.09765 4.58156 5.22999 4.458L5.25599 4.434L5.37403 4.325C7.57133 2.30824 10.2765 0.928168 13.199 0.332999L13.294 0.313999C14.8836 -0.00279978 16.5115 -0.0806569 18.124 0.0829988L18.148 0.0849986C18.23 0.0939986 18.311 0.101999 18.392 0.111999C20.649 0.367999 22.786 1.073 24.743 2.207L24.887 2.291L25.007 2.361C27.0151 3.56292 28.74 5.18418 30.064 7.114L30.074 7.129C30.9986 8.46267 31.7193 9.92677 32.212 11.473L32.24 11.563C32.263 11.634 32.2841 11.705 32.3051 11.775C33.0081 14.11 33.1781 16.522 32.8101 18.943ZM16.5 1.733C15.536 1.733 14.571 1.827 13.633 2.011L13.538 2.03L13.358 2.068C10.8136 2.62675 8.46136 3.84601 6.53804 5.603L6.41499 5.719C6.35699 5.773 6.29999 5.827 6.24299 5.883L6.22102 5.903L6.068 6.053L6.01301 6.109C5.87901 6.244 5.74301 6.387 5.61201 6.53L5.53199 6.619C5.46899 6.687 5.40901 6.756 5.34901 6.825L5.22902 6.963L5.19899 7.001C5.15899 7.048 5.11901 7.094 5.08101 7.141C4.99301 7.248 4.906 7.356 4.821 7.466L4.75801 7.549C4.67401 7.659 4.59001 7.771 4.50801 7.885L4.49598 7.902C4.20298 8.312 3.92999 8.737 3.68299 9.171C3.67239 9.18935 3.66073 9.20704 3.64802 9.224C3.37102 9.712 3.11802 10.224 2.89802 10.743C2.89089 10.7709 2.88183 10.7983 2.87098 10.825C2.49698 11.726 2.21103 12.664 2.02003 13.612C1.83403 14.555 1.74 15.527 1.74 16.499C1.74 18.361 2.08302 20.179 2.76002 21.905L2.77198 21.932C2.82198 22.062 2.87503 22.187 2.92903 22.312L2.97999 22.432C3.01999 22.524 3.06303 22.616 3.10603 22.709L3.13398 22.769L3.18599 22.879C3.20599 22.924 3.22801 22.966 3.25001 23.009L3.28004 23.069C3.35604 23.222 3.43401 23.374 3.51301 23.519L3.54304 23.576L3.59401 23.669L3.67103 23.804L3.696 23.848L3.83601 24.088C4.15901 24.628 4.51699 25.149 4.90199 25.64C4.91299 25.65 4.92803 25.667 4.94203 25.684C5.96934 26.98 7.20642 28.0947 8.602 28.982L8.68599 29.034L8.83198 29.123L8.86103 29.141C9.9733 29.8099 11.1685 30.33 12.416 30.688C13.1632 30.9023 13.9258 31.0585 14.697 31.155L14.714 31.157C16.262 31.3426 17.8294 31.2859 19.36 30.989L19.471 30.967L19.636 30.932C21.038 30.6243 22.3878 30.1143 23.643 29.418C24.35 29.028 25.03 28.575 25.666 28.074C27.0522 26.9731 28.2312 25.6342 29.148 24.12L29.215 24.008L29.293 23.874C30.1722 22.3407 30.7715 20.6632 31.063 18.92C31.193 18.123 31.26 17.308 31.26 16.5C31.261 15.0068 31.0364 13.5221 30.594 12.096L30.561 11.991C30.1163 10.6134 29.4735 9.3077 28.653 8.115L28.64 8.097C28.6072 8.04867 28.5738 8.00066 28.54 7.953L28.514 7.918C27.3368 6.27715 25.8402 4.89108 24.114 3.843L24.007 3.78C22.2246 2.73357 20.2439 2.06949 18.191 1.83L17.978 1.807L17.964 1.805C17.473 1.758 16.984 1.734 16.5 1.734V1.733ZM23.851 14.879C23.851 18.564 18.199 25.147 17.065 26.429C16.9949 26.51 16.9081 26.5749 16.8106 26.6192C16.7131 26.6636 16.6071 26.6864 16.5 26.686L16.458 26.685C16.3594 26.6796 16.2629 26.6548 16.174 26.6119C16.0851 26.5689 16.0056 26.5088 15.94 26.435C15.662 26.125 9.14802 18.793 9.14802 14.88C9.15002 10.826 12.448 7.525 16.501 7.521H16.502C20.552 7.528 23.849 10.828 23.852 14.879H23.851ZM16.501 9.024C14.9498 9.02612 13.4627 9.64341 12.366 10.7405C11.2694 11.8375 10.6526 13.3248 10.651 14.876C10.651 17.546 14.802 22.759 16.502 24.782C19.385 21.373 22.352 17.084 22.352 14.876C22.3504 13.3248 21.7337 11.8375 20.637 10.7405C19.5403 9.64341 18.0532 9.02612 16.502 9.024H16.501ZM20.665 14.953C20.6637 16.0567 20.2251 17.1149 19.4452 17.8959C18.6653 18.6769 17.6077 19.1171 16.504 19.12H16.5C15.9533 19.1216 15.4117 19.0147 14.9066 18.8057C14.4014 18.5966 13.9427 18.2894 13.557 17.902C13.1687 17.5165 12.8606 17.0578 12.6507 16.5525C12.4408 16.0471 12.3331 15.5052 12.334 14.958C12.334 13.8534 12.7723 12.794 13.5526 12.0122C14.3329 11.2304 15.3914 10.7901 16.496 10.788C17.6001 10.7909 18.6582 11.2305 19.4393 12.0109C20.2204 12.7912 20.661 13.8489 20.665 14.953ZM16.495 17.621C17.201 17.6192 17.8775 17.3379 18.3767 16.8387C18.8759 16.3395 19.1572 15.663 19.159 14.957C19.1582 14.251 18.8774 13.5741 18.3782 13.0749C17.8789 12.5756 17.202 12.2948 16.496 12.294C15.79 12.2948 15.1131 12.5756 14.6138 13.0749C14.1146 13.5741 13.8338 14.251 13.833 14.957C13.8335 15.6632 14.1143 16.3403 14.6135 16.8398C15.1128 17.3392 15.7898 17.6202 16.496 17.621H16.495Z" fill="white"/>
</svg>
