<svg width="26" height="11" viewBox="0 0 26 11" fill="none" xmlns="http://www.w3.org/2000/svg">
<path d="M5.22803 0.164023C5.44703 -0.0559766 5.80797 -0.0559766 6.03497 0.164023C6.08655 0.214827 6.12756 0.275402 6.15552 0.342185C6.18348 0.408968 6.19788 0.480601 6.19788 0.553001C6.19788 0.6254 6.18348 0.697094 6.15552 0.763877C6.12756 0.83066 6.08655 0.891235 6.03497 0.942039L1.94702 4.92702H25.434C25.749 4.92702 26 5.17203 26 5.47903C26 5.78403 25.75 6.03701 25.434 6.03701H1.94702L6.03497 10.012C6.08683 10.0636 6.12799 10.1249 6.15607 10.1925C6.18415 10.26 6.19861 10.3324 6.19861 10.4055C6.19861 10.4787 6.18415 10.5511 6.15607 10.6186C6.12799 10.6861 6.08683 10.7475 6.03497 10.799C5.92728 10.9048 5.78238 10.964 5.63147 10.964C5.48055 10.964 5.33573 10.9048 5.22803 10.799L0.174011 5.87099C0.12055 5.82138 0.07787 5.76133 0.0487061 5.69448C0.0195421 5.62763 0.0045166 5.55544 0.0045166 5.4825C0.0045166 5.40957 0.0195421 5.33744 0.0487061 5.27059C0.07787 5.20374 0.12055 5.14363 0.174011 5.09402L5.22803 0.164023Z" />
</svg>
