<svg width="193" height="23" viewBox="0 0 193 23" fill="none" xmlns="http://www.w3.org/2000/svg">
<path d="M11.857 21.705C13.314 21.705 14.586 21.38 15.676 20.729C16.7475 20.0954 17.6606 19.2261 18.346 18.187C19.0321 17.1545 19.5502 16.0197 19.881 14.825C20.213 13.629 20.379 12.495 20.379 11.423C20.379 9.968 20.243 8.698 19.97 7.614C19.697 6.53 19.192 5.499 18.455 4.524C17.7192 3.5542 16.7576 2.77875 15.654 2.265C14.5534 1.74411 13.3506 1.47493 12.133 1.477C10.375 1.477 8.846 1.911 7.549 2.778C6.251 3.647 5.259 4.875 4.573 6.468C3.888 8.062 3.544 9.912 3.544 12.02C3.544 14.061 3.914 15.815 4.651 17.28C5.389 18.745 6.393 19.848 7.66 20.591C8.927 21.334 10.327 21.705 11.857 21.705C10.4 21.705 11.857 21.705 11.857 21.705ZM11.827 0.443001C13.309 0.443001 14.735 0.654999 16.107 1.079C17.4523 1.48832 18.7068 2.15124 19.803 3.032C20.895 3.909 21.761 5.032 22.399 6.401C23.039 7.767 23.359 9.358 23.359 11.17C23.359 12.89 23.077 14.463 22.514 15.89C21.952 17.317 21.147 18.545 20.101 19.572C19.0442 20.6069 17.7825 21.4091 16.397 21.927C14.976 22.469 13.43 22.738 11.761 22.738C10.106 22.738 8.587 22.478 7.203 21.954C5.819 21.431 4.632 20.678 3.64 19.696C2.65 18.713 1.89 17.536 1.36 16.166C0.830003 14.796 0.565002 13.286 0.565002 11.636C0.565002 9.958 0.851003 8.423 1.424 7.031C1.996 5.641 2.794 4.455 3.823 3.475C4.85705 2.49135 6.0787 1.72612 7.415 1.225C8.782 0.703998 10.252 0.443001 11.828 0.443001C11.828 0.443001 10.346 0.443001 11.828 0.443001H11.827ZM37.267 0.443001C39.469 0.443001 41.649 0.925999 43.804 1.89C43.566 2.517 43.352 3.322 43.164 4.301L42.956 4.331C42.763 4.073 42.392 3.727 41.842 3.298C41.292 2.871 40.604 2.487 39.777 2.146C38.94 1.80483 38.0439 1.63187 37.14 1.637C35.787 1.637 34.584 1.9 33.53 2.421C32.4939 2.92851 31.5906 3.67088 30.892 4.589C30.189 5.509 29.66 6.573 29.305 7.779C28.9446 9.03165 28.7657 10.3295 28.774 11.633C28.774 13.597 29.117 15.33 29.804 16.83C30.488 18.33 31.452 19.486 32.692 20.297C33.934 21.107 35.346 21.514 36.932 21.514C38.332 21.514 39.602 21.228 40.735 20.657C41.869 20.084 42.75 19.523 43.381 18.971L43.231 20.947C41.503 22.141 39.259 22.738 36.5 22.738C34.851 22.738 33.365 22.479 32.04 21.961C30.7559 21.4704 29.597 20.7005 28.647 19.707C27.712 18.721 27.003 17.535 26.519 16.146C26.036 14.759 25.794 13.213 25.794 11.514C25.794 9.237 26.297 7.26 27.299 5.58C28.2725 3.92928 29.7069 2.59881 31.426 1.752C33.175 0.878999 35.121 0.443001 37.266 0.443001H37.267ZM65.839 0.917999V22.363C65.602 22.3493 65.3653 22.3313 65.129 22.309C64.9202 22.2885 64.7107 22.2762 64.501 22.272C64.342 22.272 64.111 22.284 63.811 22.309C63.5951 22.3278 63.3791 22.3458 63.163 22.363V11.575C59.559 11.474 57.426 11.423 56.767 11.423C56.144 11.423 54.003 11.474 50.348 11.575V22.363C50.174 22.353 49.942 22.335 49.649 22.309C49.4369 22.2887 49.2241 22.2763 49.011 22.272C48.852 22.272 48.623 22.284 48.321 22.309L47.673 22.363V0.917999C47.758 0.922999 47.889 0.934 48.067 0.952C48.3807 0.984234 48.6957 1.00325 49.011 1.009C49.105 1.009 49.237 1.004 49.409 0.991001L49.932 0.949001C50.111 0.933001 50.249 0.922999 50.348 0.918999V9.914C51.107 9.934 52.149 9.966 53.475 10.01C54.803 10.053 55.9 10.075 56.767 10.075C57.654 10.075 58.755 10.053 60.073 10.01C61.1029 9.97557 62.1329 9.94357 63.163 9.914V0.917999C63.248 0.922999 63.379 0.934 63.557 0.952C63.8707 0.984234 64.1857 1.00325 64.501 1.009C64.595 1.009 64.728 1.004 64.898 0.991001C65.069 0.978001 65.238 0.963001 65.407 0.949001C65.576 0.933001 65.719 0.922999 65.839 0.918999V0.917999ZM81.18 21.704C82.636 21.704 83.909 21.379 84.999 20.728C86.0699 20.0936 86.9828 19.2244 87.669 18.186C88.3548 17.1535 88.8726 16.0187 89.203 14.824C89.535 13.628 89.701 12.494 89.701 11.422C89.701 9.967 89.564 8.697 89.293 7.613C89.02 6.529 88.515 5.498 87.777 4.523C87.0416 3.55319 86.0804 2.77772 84.977 2.264C83.8757 1.74298 82.6723 1.4738 81.454 1.476C79.696 1.476 78.169 1.91 76.87 2.777C75.573 3.646 74.582 4.874 73.896 6.467C73.209 8.061 72.866 9.911 72.866 12.019C72.866 14.06 73.236 15.814 73.973 17.279C74.711 18.744 75.714 19.847 76.981 20.59C78.251 21.333 79.65 21.704 81.18 21.704C79.724 21.704 81.18 21.704 81.18 21.704ZM81.15 0.442001C82.63 0.442001 84.058 0.653999 85.429 1.078C86.7741 1.48773 88.0286 2.1506 89.125 3.031C90.217 3.908 91.083 5.031 91.722 6.4C92.36 7.766 92.68 9.357 92.68 11.169C92.68 12.889 92.398 14.462 91.837 15.889C91.275 17.316 90.47 18.544 89.422 19.571C88.3658 20.6061 87.1043 21.4084 85.719 21.926C84.297 22.468 82.752 22.737 81.083 22.737C79.429 22.737 77.91 22.477 76.526 21.953C75.14 21.43 73.953 20.677 72.963 19.695C71.973 18.712 71.212 17.535 70.681 16.165C70.152 14.795 69.887 13.285 69.887 11.635C69.887 9.957 70.174 8.422 70.745 7.03C71.317 5.64 72.117 4.454 73.145 3.474C74.179 2.49035 75.4007 1.72512 76.737 1.224C78.104 0.702999 79.575 0.442001 81.15 0.442001C79.67 0.442001 81.15 0.442001 81.15 0.442001ZM99.373 21.107H102.42C103.4 21.107 104.28 20.901 105.057 20.49C105.816 20.0979 106.447 19.4978 106.877 18.76C107.313 18.017 107.531 17.18 107.531 16.252C107.531 14.512 106.986 13.292 105.893 12.593C104.801 11.893 103.247 11.543 101.232 11.543H99.373V21.107ZM99.373 10.319H100.473C102.31 10.319 103.69 10.112 104.612 9.699C105.37 9.348 105.949 8.84 106.35 8.177C106.75 7.514 106.952 6.757 106.952 5.905C106.952 4.483 106.517 3.489 105.648 2.926C104.778 2.363 103.489 2.081 101.782 2.081H99.373V10.319ZM102.813 0.917C104.339 0.917 105.6 1.057 106.595 1.335C107.591 1.613 108.34 2.07 108.842 2.705C109.344 3.34 109.596 4.186 109.596 5.243C109.596 6.656 109.148 7.845 108.251 8.807C107.356 9.77 106.201 10.431 104.791 10.793C106.266 10.89 107.564 11.325 108.683 12.099C109.802 12.872 110.361 14.078 110.361 15.717C110.361 17.953 109.448 19.717 107.621 21.015C106.823 21.572 105.921 21.919 104.916 22.061C103.911 22.201 102.672 22.271 101.202 22.271H96.7V0.917999L102.813 0.917ZM117.39 12.577H124.083L120.703 4.554L117.39 12.577ZM121.803 0.442001L130.933 22.362C130.729 22.352 130.457 22.334 130.113 22.308C129.767 22.283 129.514 22.271 129.351 22.271C129.151 22.271 128.873 22.283 128.511 22.308C128.15 22.334 127.89 22.352 127.731 22.362C127.473 21.592 127.161 20.695 126.791 19.672C126.423 18.648 126.053 17.661 125.681 16.712C125.311 15.7682 124.93 14.8291 124.536 13.895H116.81C115.286 17.855 114.28 20.677 113.795 22.362C113.63 22.352 113.432 22.334 113.195 22.308C113.021 22.2874 112.847 22.275 112.672 22.271C112.533 22.271 112.342 22.285 112.097 22.313C111.851 22.34 111.689 22.358 111.61 22.362L121.105 0.442001H121.803ZM152.047 0.917V22.362C151.859 22.352 151.622 22.334 151.338 22.308C151.13 22.2876 150.92 22.2752 150.711 22.271C150.551 22.271 150.321 22.283 150.019 22.308L149.373 22.362V11.575C145.767 11.474 143.634 11.423 142.976 11.423C142.352 11.423 140.212 11.474 136.558 11.575V22.363C136.384 22.353 136.152 22.335 135.859 22.309C135.647 22.2887 135.434 22.2763 135.221 22.272C134.99 22.2756 134.76 22.2879 134.53 22.309L133.883 22.363V0.917999C133.967 0.922999 134.098 0.934 134.277 0.952C134.591 0.984276 134.906 1.00329 135.221 1.009C135.315 1.009 135.447 1.004 135.617 0.991001L136.142 0.949001C136.321 0.933001 136.458 0.922999 136.558 0.918999V9.914C137.315 9.934 138.358 9.966 139.685 10.01C141.013 10.053 142.11 10.075 142.976 10.075C143.862 10.075 144.965 10.053 146.283 10.01C147.599 9.966 148.63 9.935 149.373 9.914V0.917999C149.458 0.922999 149.588 0.934 149.767 0.952C150.081 0.984266 150.396 1.00328 150.711 1.009C150.804 1.009 150.937 1.004 151.107 0.991001C151.279 0.978001 151.447 0.963001 151.617 0.949001C151.785 0.933001 151.929 0.922999 152.047 0.918999V0.917ZM175.723 0.918999V22.363C175.173 22.302 174.729 22.272 174.387 22.272C174.089 22.272 173.643 22.302 173.049 22.362V5.245H172.744L160.056 20.45C159.507 21.0702 158.98 21.7085 158.474 22.364H157.559V0.917999C157.762 0.978999 158.208 1.009 158.897 1.009C159.001 1.009 159.447 0.978999 160.234 0.918999V17.287H160.538L174.388 0.917999H175.723V0.918999ZM192.01 0.917999C192 1.046 191.981 1.201 191.953 1.384C191.928 1.54284 191.915 1.70325 191.913 1.864C191.913 1.997 191.927 2.159 191.953 2.352C191.981 2.543 192 2.694 192.01 2.802C191.277 2.654 190.363 2.539 189.268 2.456L186.222 2.396H183.882V10.259H188.599C188.966 10.259 189.474 10.235 190.122 10.185C190.515 10.154 190.909 10.1273 191.303 10.105L191.27 10.343L191.23 10.668L191.215 10.918L191.233 11.17L191.274 11.507L191.304 11.797C190.871 11.7776 190.439 11.7486 190.007 11.71C189.436 11.66 188.966 11.636 188.599 11.636H183.881V20.794C185.125 20.794 186.961 20.752 189.386 20.671C190.323 20.641 191.257 20.546 192.188 20.389L192.158 20.683L192.117 21.043L192.098 21.329C192.098 21.473 192.11 21.626 192.132 21.789C192.155 21.953 192.172 22.114 192.188 22.271H181.208V0.917999H192.01Z" fill="#C42141"/>
</svg>
