<svg width="33" height="33" viewBox="0 0 33 33" fill="none" xmlns="http://www.w3.org/2000/svg">
<path d="M20.615 25.842C20.411 25.842 20.201 25.825 19.984 25.792C18.875 25.622 17.7809 25.185 16.5429 24.42C14.3054 23.0433 12.3858 21.2071 10.911 19.033C9.70599 17.265 8.891 15.538 8.421 13.753C8.107 12.567 8.03692 11.633 8.19492 10.723C8.33092 9.949 8.70503 9.32 9.30503 8.85C9.59803 8.62 9.89504 8.374 10.185 8.135C10.371 7.981 10.558 7.825 10.7459 7.673C11.726 6.885 12.926 7.003 13.735 7.967C13.957 8.234 14.171 8.497 14.385 8.76L14.7049 9.15C15.0109 9.52 15.328 9.907 15.641 10.294C16.464 11.307 16.3469 12.5 15.3409 13.33C14.9559 13.65 14.558 13.98 14.155 14.303C14.329 14.77 14.5879 15.261 14.9549 15.818C15.8219 17.133 16.748 18.163 17.785 18.968C17.903 19.058 18.047 19.148 18.199 19.242L18.2519 19.275C18.6479 18.945 19.048 18.62 19.437 18.305L19.449 18.295C20.414 17.511 21.644 17.633 22.436 18.593L22.4389 18.596L23.394 19.759L24.357 20.933C25.163 21.925 25.038 23.14 24.048 23.957C23.9018 24.0761 23.7549 24.1941 23.607 24.311C23.303 24.552 23.017 24.78 22.75 25.023C22.158 25.568 21.441 25.843 20.615 25.843V25.842ZM12.115 8.73C11.996 8.73 11.872 8.786 11.735 8.897C11.552 9.044 11.369 9.195 11.186 9.347C10.89 9.592 10.584 9.846 10.274 10.088C9.98003 10.318 9.812 10.605 9.744 10.993C9.627 11.667 9.68802 12.395 9.94102 13.351C10.366 14.961 11.1079 16.531 12.2099 18.148C13.5608 20.1388 15.3189 21.8202 17.368 23.081C18.423 23.733 19.329 24.1 20.223 24.238C20.849 24.334 21.302 24.219 21.688 23.864C21.997 23.582 22.318 23.327 22.628 23.08C22.7695 22.9683 22.9101 22.8556 23.05 22.742C23.368 22.479 23.3949 22.242 23.1379 21.926L22.178 20.758L21.223 19.593C20.976 19.294 20.7409 19.271 20.4389 19.517L20.426 19.527C19.956 19.907 19.47 20.302 19.003 20.697C18.603 21.039 18.106 21.068 17.678 20.776C17.583 20.71 17.4799 20.646 17.3719 20.579C17.1829 20.4665 17 20.344 16.824 20.212C15.646 19.298 14.6069 18.145 13.6419 16.684C13.1129 15.881 12.767 15.176 12.552 14.464C12.4794 14.2528 12.4758 14.024 12.5417 13.8106C12.6077 13.5972 12.7398 13.4104 12.9189 13.277C13.3949 12.901 13.875 12.503 14.339 12.117C14.674 11.842 14.6949 11.624 14.4189 11.284C14.1089 10.9 13.7969 10.52 13.4909 10.151L13.167 9.754C12.955 9.494 12.7439 9.234 12.5279 8.974C12.3909 8.811 12.258 8.73 12.115 8.73ZM32.81 18.943V18.949L32.77 19.192C32.4441 21.2028 31.7436 23.1346 30.7049 24.887L30.63 25.013C29.5687 26.7833 28.1803 28.3355 26.5389 29.587L26.2889 29.284L26.5279 29.596C24.5517 31.1234 22.2497 32.174 19.801 32.666L19.704 32.686C18.041 33.0176 16.3364 33.0871 14.652 32.892L14.546 32.88L14.453 32.868C12.0328 32.5743 9.70958 31.7404 7.65501 30.428C5.52388 29.082 3.73473 27.259 2.42893 25.103L2.40904 25.073C2.3972 25.0531 2.3855 25.0331 2.374 25.013L2.35203 24.976C2.29926 24.8878 2.24725 24.7991 2.19602 24.71C2.15802 24.644 2.11999 24.578 2.08299 24.51L2.06699 24.482C2.05109 24.4531 2.03542 24.4241 2.02 24.395L1.98997 24.338C1.90443 24.18 1.8214 24.0206 1.74094 23.86L1.71299 23.804L1.62595 23.627C1.6055 23.5849 1.58556 23.5425 1.56602 23.5L1.54002 23.443C1.49102 23.337 1.442 23.231 1.395 23.124L1.34092 22.998C1.2791 22.8549 1.21947 22.7109 1.16196 22.566L1.15403 22.545C-0.0156999 19.597 -0.303808 16.3726 0.324929 13.264C0.776523 10.9664 1.71977 8.79377 3.08994 6.895L3.10203 6.879C3.19503 6.75 3.28994 6.622 3.38694 6.495L3.452 6.409C3.58636 6.23634 3.72401 6.06631 3.86497 5.899L3.92002 5.835C4.02545 5.70816 4.13376 5.58379 4.24497 5.462L4.33897 5.36C4.48897 5.197 4.64002 5.037 4.79002 4.886L4.83994 4.836C4.96737 4.70737 5.09741 4.58135 5.22996 4.458L5.25596 4.434L5.374 4.325C7.57129 2.30824 10.2764 0.928168 13.199 0.332999L13.2939 0.313999C14.8835 -0.00279978 16.5115 -0.0806569 18.124 0.0829988L18.1479 0.0849986C18.2299 0.0939986 18.3109 0.101999 18.3919 0.111999C20.6489 0.367999 22.786 1.073 24.743 2.207L24.8869 2.291L25.0069 2.361C27.015 3.56292 28.74 5.18418 30.0639 7.114L30.074 7.128C30.9986 8.46201 31.7193 9.92644 32.212 11.473L32.24 11.563C32.263 11.634 32.284 11.705 32.305 11.775C33.008 14.11 33.178 16.522 32.81 18.943ZM16.5 1.733C15.536 1.733 14.571 1.827 13.633 2.011L13.5379 2.03L13.358 2.068C10.6792 2.65722 8.21625 3.97783 6.24302 5.883L6.22092 5.903L6.06797 6.053L6.01292 6.109C5.87892 6.244 5.74304 6.387 5.61204 6.53L5.53098 6.619C5.46898 6.687 5.40898 6.756 5.34898 6.825L5.22898 6.963L5.19895 7.001C5.15895 7.048 5.11903 7.094 5.08103 7.141C4.99303 7.248 4.90602 7.356 4.82102 7.466L4.75803 7.549C4.67403 7.659 4.59003 7.771 4.50803 7.885L4.49595 7.902C4.20295 8.312 3.92996 8.737 3.68296 9.171C3.67236 9.18935 3.66064 9.20705 3.64793 9.224C3.37093 9.712 3.11793 10.224 2.89793 10.743C2.89079 10.7709 2.88179 10.7983 2.87095 10.825C2.49695 11.726 2.211 12.664 2.02 13.612C1.834 14.555 1.73997 15.527 1.73997 16.499C1.73997 18.361 2.08299 20.179 2.75999 21.905L2.77195 21.932C2.82195 22.062 2.87493 22.187 2.92893 22.312L2.97996 22.432C3.01996 22.524 3.06293 22.616 3.10593 22.709L3.13401 22.769L3.18601 22.879C3.20601 22.924 3.22798 22.966 3.24998 23.009L3.28001 23.069C3.35601 23.222 3.43392 23.374 3.51292 23.519L3.54295 23.576L3.59397 23.669L3.671 23.804L3.69602 23.848L3.83604 24.088C4.15904 24.628 4.51696 25.149 4.90196 25.64C4.91296 25.65 4.92799 25.667 4.94199 25.684C5.9693 26.98 7.20645 28.0947 8.60203 28.982L8.68601 29.034L8.83201 29.123L8.86094 29.141C9.97321 29.8099 11.1685 30.33 12.416 30.688C13.1631 30.9023 13.9257 31.0585 14.697 31.155L14.714 31.157C16.262 31.3426 17.8294 31.2859 19.36 30.989L19.4709 30.967L19.636 30.932C21.038 30.6243 22.3877 30.1143 23.6429 29.418C24.3499 29.028 25.03 28.575 25.666 28.074C27.0521 26.9731 28.2311 25.6342 29.1479 24.12L29.2149 24.008L29.2929 23.874C30.1722 22.3408 30.7716 20.6633 31.063 18.92C31.193 18.123 31.259 17.308 31.259 16.5C31.2603 15.0069 31.036 13.5222 30.594 12.096L30.561 11.991C30.1162 10.6134 29.4734 9.3077 28.6529 8.115L28.64 8.097C28.6071 8.04867 28.5738 8.00066 28.54 7.953L28.514 7.918C27.3368 6.27715 25.8402 4.89108 24.114 3.843L24.0069 3.78C22.2245 2.73357 20.244 2.06949 18.191 1.83L17.978 1.807L17.964 1.805C17.473 1.758 16.984 1.734 16.5 1.734V1.733Z" fill="white"/>
</svg>
