<svg width="43" height="43" viewBox="0 0 43 43" fill="none" xmlns="http://www.w3.org/2000/svg">
<path d="M42.753 24.683L42.7519 24.6909L42.702 25.008C42.2886 27.5538 41.4143 30.003 40.1219 32.235C40.0859 32.3 40.047 32.3649 40.009 32.4289L39.911 32.5939C38.5282 34.9005 36.7194 36.923 34.581 38.5539L34.254 38.1579L34.567 38.5649C31.9918 40.5551 28.9919 41.924 25.801 42.5649L25.675 42.59C23.4624 43.0315 21.1935 43.1169 18.954 42.8429L18.833 42.829L18.625 42.8019C15.5457 42.3973 12.5927 41.3211 9.97497 39.6498C7.19785 37.8959 4.86655 35.5204 3.16503 32.7109L3.13903 32.6708L3.09398 32.5939L3.06493 32.5439C2.94516 32.3437 2.8285 32.1417 2.71495 31.9379L2.69396 31.902C2.67336 31.8645 2.65312 31.8268 2.63305 31.789L2.59301 31.714C2.48301 31.509 2.37303 31.3 2.26903 31.09L2.23302 31.017C2.16691 30.8864 2.10289 30.7547 2.041 30.622L2.00695 30.548C1.94258 30.41 1.87961 30.2713 1.81798 30.132L1.74804 29.967C1.66804 29.781 1.59 29.593 1.515 29.405L1.50402 29.3769C-0.0201182 25.5357 -0.395406 21.3344 0.423939 17.2839C1.01206 14.2901 2.24088 11.4592 4.02599 8.98504L4.04198 8.96404C4.16198 8.79604 4.28693 8.62904 4.41393 8.46404L4.49804 8.35198C4.6729 8.12674 4.85224 7.90499 5.036 7.68694L5.10802 7.60296L5.27001 7.41302C5.35601 7.31402 5.44397 7.21488 5.53197 7.11688L5.65294 6.98504C5.84794 6.77204 6.04593 6.56488 6.24193 6.36688L6.30602 6.30096C6.47324 6.13442 6.64327 5.97077 6.81603 5.80999L6.84899 5.77801L7.00304 5.63592C9.79452 3.07379 13.2165 1.29918 16.9189 0.493829L17.199 0.434015L17.322 0.409845C19.3937 -0.00316435 21.5153 -0.104952 23.6169 0.107843L23.647 0.111017L23.9659 0.145929C27.0172 0.487081 29.9578 1.4874 32.584 3.07781C35.2008 4.64336 37.4486 6.75563 39.1739 9.26995L39.187 9.28997C40.3919 11.0277 41.3309 12.9352 41.973 14.9499L42.01 15.0668C42.995 18.1721 43.2493 21.4633 42.753 24.683ZM40.733 21.4999C40.733 19.6179 40.463 17.76 39.932 15.977L39.866 15.7619L39.823 15.6249C39.2427 13.8301 38.4051 12.129 37.336 10.5749L37.319 10.55L37.188 10.3639L37.155 10.318C35.621 8.17973 33.6706 6.3735 31.421 5.00799L31.282 4.92596L31.115 4.82781C29.7618 4.05215 28.3201 3.44251 26.821 3.0119C25.8004 2.71884 24.7576 2.50919 23.703 2.38494C23.703 2.38494 23.497 2.36091 23.426 2.35491L23.4079 2.35296C21.5236 2.16726 19.6223 2.25761 17.764 2.62103L17.641 2.64495L17.405 2.695C15.5809 3.09654 13.8246 3.76039 12.191 4.66595C10.8688 5.39808 9.63703 6.28278 8.52099 7.30193L8.359 7.45184C8.283 7.52184 8.209 7.59397 8.135 7.66497L8.10595 7.69305C8.03995 7.75705 7.97297 7.8209 7.90697 7.8869L7.83605 7.95989C7.66105 8.13689 7.48398 8.32194 7.31298 8.50994L7.20702 8.62493C7.0741 8.77262 6.94333 8.92227 6.81493 9.07391L6.77294 9.12298C6.60431 9.3203 6.44093 9.52201 6.28295 9.72796L6.19994 9.83782C6.08994 9.98082 5.98099 10.1268 5.87499 10.2748L5.85802 10.298C5.47671 10.8306 5.12285 11.3821 4.79796 11.9509C4.78461 11.9744 4.76998 11.9972 4.75402 12.019C4.39302 12.656 4.06397 13.322 3.77697 13.999C3.76753 14.0353 3.75581 14.071 3.74193 14.1059C3.25498 15.2773 2.88324 16.4935 2.63195 17.737C2.38831 18.9765 2.26577 20.2367 2.26598 21.4999C2.26598 23.9249 2.71401 26.2949 3.59801 28.5429L3.61205 28.58C3.67805 28.747 3.74701 28.9099 3.81701 29.0739L3.88305 29.2289C3.93605 29.3499 3.99199 29.47 4.04699 29.59L4.08397 29.6699L4.15099 29.8139L4.234 29.9819L4.27404 30.06C4.37304 30.26 4.47499 30.4569 4.57799 30.6469L4.61803 30.7199L4.68297 30.842L4.78295 31.018L4.81603 31.0749C5.29656 31.9116 5.83901 32.7113 6.43895 33.467C7.7779 35.1558 9.39021 36.6085 11.209 37.7648L11.319 37.832C11.382 37.872 11.445 37.9109 11.509 37.9489L11.546 37.9719C13.8709 39.3654 16.4606 40.2594 19.15 40.5969L19.173 40.5991L19.348 40.621C21.3082 40.8377 23.2899 40.7568 25.2259 40.381L25.371 40.351C27.2742 39.9557 29.1069 39.2753 30.807 38.3329C31.732 37.8213 32.6138 37.2354 33.444 36.581C35.2508 35.147 36.7876 33.4023 37.982 31.4289L38.068 31.2839L38.17 31.1088C39.315 29.1105 40.0955 26.9246 40.475 24.653C40.645 23.615 40.732 22.5529 40.732 21.4999H40.733ZM30.114 21.4951C30.114 21.965 29.7369 22.3569 29.2629 22.3569H22.3559V29.2648C22.3541 29.4919 22.2624 29.7091 22.1008 29.8686C21.9392 30.0281 21.721 30.117 21.494 30.1159C21.3821 30.1164 21.2712 30.0948 21.1677 30.0522C21.0642 30.0096 20.9702 29.947 20.8911 29.8679C20.812 29.7887 20.7492 29.6947 20.7067 29.5912C20.6641 29.4878 20.6424 29.3767 20.6429 29.2648V22.3569H13.736C13.5089 22.355 13.2919 22.2633 13.1324 22.1017C12.9729 21.9402 12.8839 21.7221 12.885 21.4951C12.885 21.021 13.262 20.643 13.736 20.643H20.6429V13.735C20.6429 13.261 21.02 12.884 21.494 12.884C21.964 12.884 22.3559 13.261 22.3559 13.735V20.643H29.2629C29.7369 20.643 30.114 21.021 30.114 21.4951Z" fill="white"/>
</svg>
