<svg width="50" height="50" viewBox="0 0 50 50" fill="none" xmlns="http://www.w3.org/2000/svg">
<path d="M37.544 24.918C37.544 24.946 37.538 24.972 37.536 24.999C37.538 25.026 37.544 25.0531 37.544 25.0801C37.544 25.6742 37.308 26.2437 36.8879 26.6638C36.4679 27.0839 35.8981 27.3201 35.304 27.3201H27.24V35.384C27.24 35.9781 27.004 36.5479 26.5839 36.968C26.1638 37.3881 25.5941 37.624 25 37.624C24.4059 37.624 23.8362 37.3881 23.4161 36.968C22.996 36.5479 22.76 35.9781 22.76 35.384V27.3201H14.696C14.1019 27.3201 13.5321 27.0839 13.1121 26.6638C12.692 26.2437 12.456 25.6742 12.456 25.0801C12.456 25.0531 12.462 25.026 12.463 25C12.462 24.972 12.456 24.946 12.456 24.918C12.456 24.3239 12.692 23.7541 13.1121 23.334C13.5321 22.9139 14.1019 22.678 14.696 22.678H22.76V14.615C22.76 14.0209 22.996 13.4511 23.4161 13.031C23.8362 12.6109 24.4059 12.375 25 12.375C25.5941 12.375 26.1638 12.6109 26.5839 13.031C27.004 13.4511 27.24 14.0209 27.24 14.615V22.679H35.304C35.8981 22.679 36.4679 22.9149 36.8879 23.335C37.308 23.755 37.544 24.3249 37.544 24.9189V24.918ZM50 25C50 38.785 38.785 50 25 50C11.214 50 0 38.785 0 25C0 11.215 11.214 0 25 0C38.785 0 50 11.215 50 25ZM45.477 25C45.477 13.71 36.291 4.52295 25 4.52295C13.709 4.52295 4.52301 13.709 4.52301 25C4.52301 36.291 13.709 45.4771 25 45.4771C36.29 45.4771 45.477 36.291 45.477 25Z" fill="white"/>
</svg>
